<svg width="223" height="27" viewBox="0 0 223 27" fill="none" xmlns="http://www.w3.org/2000/svg">
<path d="M10.5366 19.5281L15.6846 2.92909H19.1826L24.3306 19.5281L30.1386 2.92909H34.3296L26.2776 25.9961H22.4166L17.5656 10.1891H17.3016L12.4506 25.9961H8.5896L0.537602 2.92909H4.7286L10.5366 19.5281ZM53.7287 18.8351H39.9677C40.0557 20.1111 40.6387 21.1451 41.7167 21.9371C42.7947 22.7071 44.0267 23.0921 45.4127 23.0921C47.6127 23.0921 49.2847 22.3991 50.4287 21.0131L52.5407 23.3231C50.6487 25.2811 48.1847 26.2601 45.1487 26.2601C42.6847 26.2601 40.5837 25.4461 38.8457 23.8181C37.1297 22.1681 36.2717 19.9681 36.2717 17.2181C36.2717 14.4461 37.1517 12.2461 38.9117 10.6181C40.6717 8.99009 42.7397 8.17609 45.1157 8.17609C47.5137 8.17609 49.5487 8.90209 51.2207 10.3541C52.8927 11.7841 53.7287 13.7641 53.7287 16.2941V18.8351ZM39.9677 15.9311H50.0327C50.0327 14.4571 49.5707 13.3241 48.6467 12.5321C47.7227 11.7401 46.5787 11.3441 45.2147 11.3441C43.8727 11.3441 42.6627 11.7621 41.5847 12.5981C40.5067 13.4121 39.9677 14.5231 39.9677 15.9311ZM72.0161 25.9961H68.6501V23.6531C67.1981 25.3911 65.2511 26.2601 62.8091 26.2601C60.9831 26.2601 59.4651 25.7431 58.2551 24.7091C57.0671 23.6751 56.4731 22.3001 56.4731 20.5841C56.4731 18.8461 57.1111 17.5481 58.3871 16.6901C59.6631 15.8321 61.3901 15.4031 63.5681 15.4031H68.3531V14.7431C68.3531 12.4111 67.0551 11.2451 64.4591 11.2451C62.8311 11.2451 61.1371 11.8391 59.3771 13.0271L57.7271 10.7171C59.8611 9.02309 62.2811 8.17609 64.9871 8.17609C67.0551 8.17609 68.7381 8.70409 70.0361 9.76009C71.3561 10.7941 72.0161 12.4331 72.0161 14.6771V25.9961ZM68.3201 19.4621V17.9771H64.1621C61.5001 17.9771 60.1691 18.8131 60.1691 20.4851C60.1691 21.3431 60.4991 22.0031 61.1591 22.4651C61.8191 22.9051 62.7321 23.1251 63.8981 23.1251C65.0861 23.1251 66.1201 22.7951 67.0001 22.1351C67.8801 21.4751 68.3201 20.5841 68.3201 19.4621ZM81.7153 11.4101V20.3201C81.7153 21.1561 81.9353 21.8271 82.3753 22.3331C82.8153 22.8171 83.4313 23.0591 84.2233 23.0591C85.0153 23.0591 85.7743 22.6741 86.5003 21.9041L88.0183 24.5111C86.7203 25.6771 85.2793 26.2601 83.6953 26.2601C82.1333 26.2601 80.7913 25.7211 79.6693 24.6431C78.5693 23.5431 78.0193 22.0691 78.0193 20.2211V11.4101H75.8083V8.44009H78.0193V2.92909H81.7153V8.44009H86.3353V11.4101H81.7153ZM94.6503 16.4921V25.9961H90.9543V1.54309H94.6503V11.6411C95.1783 10.5631 95.9703 9.71609 97.0263 9.10009C98.1043 8.48409 99.2593 8.17609 100.491 8.17609C102.471 8.17609 104.066 8.78109 105.276 9.99109C106.508 11.2011 107.124 12.9501 107.124 15.2381V25.9961H103.428V16.3601C103.428 13.1261 102.086 11.5091 99.4023 11.5091C98.1263 11.5091 97.0153 11.9381 96.0693 12.7961C95.1233 13.6321 94.6503 14.8641 94.6503 16.4921ZM128.623 18.8351H114.862C114.95 20.1111 115.533 21.1451 116.611 21.9371C117.689 22.7071 118.921 23.0921 120.307 23.0921C122.507 23.0921 124.179 22.3991 125.323 21.0131L127.435 23.3231C125.543 25.2811 123.079 26.2601 120.043 26.2601C117.579 26.2601 115.478 25.4461 113.74 23.8181C112.024 22.1681 111.166 19.9681 111.166 17.2181C111.166 14.4461 112.046 12.2461 113.806 10.6181C115.566 8.99009 117.634 8.17609 120.01 8.17609C122.408 8.17609 124.443 8.90209 126.115 10.3541C127.787 11.7841 128.623 13.7641 128.623 16.2941V18.8351ZM114.862 15.9311H124.927C124.927 14.4571 124.465 13.3241 123.541 12.5321C122.617 11.7401 121.473 11.3441 120.109 11.3441C118.767 11.3441 117.557 11.7621 116.479 12.5981C115.401 13.4121 114.862 14.5231 114.862 15.9311ZM141.895 11.9051C140.069 11.9051 138.694 12.4991 137.77 13.6871C136.846 14.8751 136.384 16.4701 136.384 18.4721V25.9961H132.688V8.44009H136.384V11.9711C136.978 10.8711 137.781 9.96909 138.793 9.26509C139.827 8.56109 140.916 8.19809 142.06 8.17609L142.093 11.9051C142.027 11.9051 141.961 11.9051 141.895 11.9051ZM153.526 19.5281L158.674 2.92909H162.172L167.32 19.5281L173.128 2.92909H177.319L169.267 25.9961H165.406L160.555 10.1891H160.291L155.44 25.9961H151.579L143.527 2.92909H147.718L153.526 19.5281ZM184.079 25.9961H180.383V8.44009H184.079V25.9961ZM180.614 4.94209C180.152 4.48009 179.921 3.93009 179.921 3.29209C179.921 2.65409 180.152 2.10409 180.614 1.64209C181.076 1.18009 181.626 0.949092 182.264 0.949092C182.902 0.949092 183.452 1.18009 183.914 1.64209C184.376 2.10409 184.607 2.65409 184.607 3.29209C184.607 3.93009 184.376 4.48009 183.914 4.94209C183.452 5.40409 182.902 5.63509 182.264 5.63509C181.626 5.63509 181.076 5.40409 180.614 4.94209ZM201.946 20.7491C201.946 22.4211 201.341 23.7631 200.131 24.7751C198.921 25.7651 197.37 26.2601 195.478 26.2601C194.202 26.2601 192.871 26.0291 191.485 25.5671C190.121 25.1051 188.911 24.4561 187.855 23.6201L189.637 20.7491C191.683 22.2891 193.663 23.0591 195.577 23.0591C196.413 23.0591 197.073 22.8721 197.557 22.4981C198.041 22.1021 198.283 21.6071 198.283 21.0131C198.283 20.1331 197.117 19.3411 194.785 18.6371C194.609 18.5711 194.477 18.5271 194.389 18.5051C190.737 17.5151 188.911 15.8651 188.911 13.5551C188.911 11.9271 189.538 10.6291 190.792 9.66109C192.068 8.67109 193.718 8.17609 195.742 8.17609C197.766 8.17609 199.68 8.77009 201.484 9.95809L200.098 12.6971C198.668 11.7511 197.117 11.2781 195.445 11.2781C194.565 11.2781 193.85 11.4431 193.3 11.7731C192.75 12.0811 192.475 12.5541 192.475 13.1921C192.475 13.7641 192.761 14.1821 193.333 14.4461C193.729 14.6441 194.279 14.8311 194.983 15.0071C195.709 15.1831 196.347 15.3591 196.897 15.5351C197.447 15.7111 197.975 15.9091 198.481 16.1291C199.009 16.3491 199.57 16.6571 200.164 17.0531C201.352 17.8451 201.946 19.0771 201.946 20.7491ZM222.467 18.8351H208.706C208.794 20.1111 209.377 21.1451 210.455 21.9371C211.533 22.7071 212.765 23.0921 214.151 23.0921C216.351 23.0921 218.023 22.3991 219.167 21.0131L221.279 23.3231C219.387 25.2811 216.923 26.2601 213.887 26.2601C211.423 26.2601 209.322 25.4461 207.584 23.8181C205.868 22.1681 205.01 19.9681 205.01 17.2181C205.01 14.4461 205.89 12.2461 207.65 10.6181C209.41 8.99009 211.478 8.17609 213.854 8.17609C216.252 8.17609 218.287 8.90209 219.959 10.3541C221.631 11.7841 222.467 13.7641 222.467 16.2941V18.8351ZM208.706 15.9311H218.771C218.771 14.4571 218.309 13.3241 217.385 12.5321C216.461 11.7401 215.317 11.3441 213.953 11.3441C212.611 11.3441 211.401 11.7621 210.323 12.5981C209.245 13.4121 208.706 14.5231 208.706 15.9311Z" fill="#4457A8"/>
</svg>
